
<svg width="150px" height="150px" viewBox="0 0 150 150" version="1.1" xmlns="http://www.w3.org/2000/svg" xmlns:xlink="http://www.w3.org/1999/xlink">
    <!-- Generator: Sketch 50.2 (55047) - http://www.bohemiancoding.com/sketch -->
    <desc>Created with Sketch.</desc>
    <defs>
        <linearGradient x1="-17.5755694%" y1="136.321023%" x2="-17.5755694%" y2="49.9984013%" id="linearGradient-1">
            <stop stop-color="#2E3436" offset="0%"></stop>
            <stop stop-color="#555753" offset="100%"></stop>
        </linearGradient>
    </defs>
    <g id="Page-1" stroke="none" stroke-width="1" fill="none" fill-rule="evenodd">
        <g id="Search-Results" transform="translate(-30.000000, -30.000000)" fill-rule="nonzero">
            <g id="television-148223" transform="translate(30.000000, 30.000000)">
                <path d="M45.5663697,121.812081 L39.1658378,121.812081 C37.4990369,121.812081 35.0185005,122.68967 34.6324157,124.285878 L30.6451933,135.637415 C30.2591238,137.233623 33.3598298,138.926174 35.0266308,138.926174 L41.4271626,138.926174 C43.0939635,138.926174 44.7466382,137.641104 45.132723,136.044896 L47.8782036,124.693359 C48.2642782,123.097151 47.2332214,121.812081 45.5663697,121.812081 Z" id="Shape" fill="#A29F9F"></path>
                <path d="M47.3793087,132.885954 C44.2522643,135.33358 46.6778649,134.848684 39.7959184,136.422803 L43.3038684,136.912752 C45.0602496,136.912752 48.3312986,135.484577 47.9245038,134.134885 L47.3792904,132.885906 L47.3793087,132.885954 Z" id="Shape" fill="#FFFFFF"></path>
                <path d="M109.078518,122.818792 L116.984904,122.818792 C119.043936,122.818792 122.10817,123.747996 122.584865,125.438127 L127.510318,137.457389 C127.987236,139.14752 124.15693,140.939597 122.097897,140.939597 L114.191511,140.939597 C112.132479,140.939597 110.090922,139.578956 109.614004,137.888826 L106.222482,125.869564 C105.745564,124.179433 107.019262,122.818792 109.078295,122.818792 L109.078518,122.818792 Z" id="Shape" fill="#A29F9F"></path>
                <path d="M125.950645,137.919463 C122.823591,140.979027 125.249207,140.372924 118.367347,142.340551 L121.8753,142.95302 C123.63166,142.95302 126.90273,141.167829 126.495932,139.48065 L125.9507,137.919463 L125.950645,137.919463 Z" id="Shape" fill="#FFFFFF"></path>
                <g id="Group" transform="translate(21.428571, 133.892617) scale(-1, 1) translate(-21.428571, -133.892617) translate(10.204082, 122.818792)">
                    <path d="M3.27337447,0.44295302 L11.3461319,0.44295302 C13.4484528,0.44295302 16.5772663,1.5522413 17.0638348,3.56994381 L22.0928239,17.9185313 C22.5797632,19.9362338 18.6689369,22.0756454 16.5667205,22.0756454 L8.49396298,22.0756454 C6.39164215,22.0756454 4.30717608,20.4512955 3.82024205,18.4335929 L0.357460845,4.08500546 C-0.129478405,2.06730295 1.17100142,0.44295302 3.27332226,0.44295302 L3.27337447,0.44295302 Z" id="Shape" fill="#B9B8B8"></path>
                    <path d="M4.99620313,15.6115187 C8.28623161,18.8277696 5.73420028,18.1906384 12.9749881,20.2590744 L9.28421927,20.9029015 C7.4363028,20.9029015 3.99461319,19.0262229 4.42276222,17.2527111 L4.99641196,15.6115187 L4.99620313,15.6115187 Z" id="Shape" fill="#FFFFFF"></path>
                    <path d="M4.09302326,1.82846886 C2.30310869,1.82846886 1.19204082,3.20770095 1.60661604,4.92558608 L4.5288467,14.2935274 C4.5288467,14.2935274 13.7433697,11.4407554 18.4419934,11.9558171 L15.8306028,4.48690807 C15.4160223,2.76902294 12.7449644,1.82831434 10.9550498,1.82831434 L4.09297105,1.82831434 L4.09302326,1.82846886 Z" id="Shape" fill="#A29F9F"></path>
                </g>
                <g id="Group" transform="translate(87.755102, 127.852349)">
                    <path d="M3.23682962,0.473856719 L11.3095871,0.473856719 C13.4119079,0.473856719 16.5407214,1.583145 17.02729,3.60084751 L22.0562791,17.949435 C22.5432183,19.9671375 18.632392,22.1065491 16.5301756,22.1065491 L8.45741813,22.1065491 C6.35509729,22.1065491 4.27063123,20.4821992 3.7836972,18.4644966 L0.320915994,4.11590916 C-0.166023256,2.09820665 1.13445657,0.473856719 3.23677741,0.473856719 L3.23682962,0.473856719 Z" id="Shape" fill="#B9B8B8"></path>
                    <path d="M20.6843854,15.8999532 C17.3943569,19.1162042 19.9463882,18.4790729 12.7056004,20.547509 L16.3963692,21.191336 C18.2442857,21.191336 21.6859753,19.3146574 21.2578263,17.5411456 L20.6841766,15.8999532 L20.6843854,15.8999532 Z" id="Shape" fill="#FFFFFF"></path>
                    <path d="M4.05125771,1.85422194 C2.26134314,1.85422194 1.15027527,3.23345403 1.5648505,4.95133916 L3.70397722,13.8042188 L18.4002278,11.9815702 L15.7888372,4.51266115 C15.3742568,2.79477603 12.7031989,1.85406743 10.9132843,1.85406743 L4.05120551,1.85406743 L4.05125771,1.85422194 Z" id="Shape" fill="#A29F9F"></path>
                </g>
                <path d="M94.8979592,46.3087248 C94.8979592,54.6486794 82.7916267,61.409396 67.8571429,61.409396 C52.9226591,61.409396 40.8163265,54.6486794 40.8163265,46.3087248 C40.8163265,37.9687703 52.9226591,31.2080537 67.8571429,31.2080537 C82.7916267,31.2080537 94.8979592,37.9687703 94.8979592,46.3087248 Z" id="Shape" fill="#B9B8B8"></path>
                <path d="M15.3236234,57.0215632 C32.6523632,48.2001254 126.310464,21.1005222 142.812773,58.5035766 C160.141513,103.316698 141.346346,122.911879 136.211324,128.370629 C121.358193,142.132111 47.9184459,141.07346 8.31185166,124.842004 C-9.84174057,96.965826 6.04682161,61.7477534 15.3257276,57.0201306 L15.3236234,57.0215632 Z" id="Shape" fill="#00C4CC"></path>
                <path d="M18.2742902,66.8593058 C29.7089141,59.9369956 91.5088826,36.3601609 102.400262,65.7116714 C113.834886,100.878241 101.432599,116.255129 98.0442405,120.537124 C88.2430586,131.336107 39.781983,127.521601 13.6479712,114.784033 C1.6690433,92.9085575 12.1533347,70.5650966 18.2762512,66.8580127 L18.2742902,66.8593058 Z" id="Shape" fill="#555753"></path>
                <path d="M20.3482684,67.0089447 C19.0296744,68.6881442 17.337788,72.7086338 16.4114621,75.3633967 C15.0124853,79.5872771 13.8401089,84.9229169 13.2653061,90.6040268 C27.2835372,89.7027287 40.1147385,82.3244078 51.9908341,75.6534388 C70.5041761,64.325797 92.8247631,73.9277398 92.8247631,73.9277398 C100.279015,54.4980136 85.2350467,52.4042397 85.2350467,52.4042397 C59.8446278,51.7488064 41.7661436,56.9437087 20.3490063,67.0085319 L20.3482684,67.0089447 Z" id="Shape" fill="#888A85"></path>
                <polygon id="Shape" fill="#B9B8B8" points="73.4693878 34.28092 104.567541 4.02684564 106.122449 8.90653506 76.2993197 35.2348993 73.4693878 34.2809688"></polygon>
                <path d="M113.265306,5.53691275 C113.265306,8.59484899 110.295745,11.0738255 106.632653,11.0738255 C102.969562,11.0738255 100,8.59484899 100,5.53691275 C100,2.47897651 102.969562,0 106.632653,0 C110.295745,0 113.265306,2.47897651 113.265306,5.53691275 Z" id="Shape" fill="#B9B8B8"></path>
                <polygon id="Shape" fill="#B9B8B8" points="65.3061224 39.2616424 36.7525958 12.0805369 35.7142857 15.6704942 60.0486395 36.973301 65.3061224 39.261745"></polygon>
                <path d="M44.8979592,15.1006711 C44.8979592,17.8806132 41.9283976,20.1342282 38.2653061,20.1342282 C34.6022147,20.1342282 31.6326531,17.8806132 31.6326531,15.1006711 C31.6326531,12.3207291 34.6022147,10.0671141 38.2653061,10.0671141 C41.9283976,10.0671141 44.8979592,12.3207291 44.8979592,15.1006711 Z" id="Shape" fill="#B9B8B8" transform="translate(38.265306, 15.100671) scale(-1, 1) translate(-38.265306, -15.100671) "></path>
                <path d="M123.377405,123.69633 C112.712109,123.270515 123.656376,127.222748 113.164445,127.782018 C99.4889861,128.124205 86.2082077,131.645914 72.5825422,130.837061 C51.8515711,129.606426 30.809258,123.431292 10.2040816,120.805369 C27.6837832,128.671169 53.8375553,137.301952 75.7483761,137.879072 C87.0557497,138.176973 109.254326,136.782856 117.763291,135.152712 C126.222462,133.53204 132.124332,128.860073 134.962051,125.856342 C138.576291,122.238178 128.253523,123.887992 123.376357,123.695966 L123.377405,123.69633 Z" id="Shape" fill="#007880"></path>
                <path d="M77.2057711,44.2968923 C53.6168994,44.4352658 27.6048268,52.3905766 20.1227735,56.8404739 C18.9487726,57.5387525 17.6364158,59.1355237 16.3265306,61.409396 C29.8455514,54.0182994 85.3046679,39.1730468 112.244898,54.6530982 C104.337943,46.8752368 91.195444,44.2146523 77.2057711,44.2971551 L77.2057711,44.2968923 Z" id="Shape" fill="#A8DDE0"></path>
                <path d="M40.4989398,12.0805369 C40.4989398,12.0805369 44.0140469,12.3550946 43.8734426,14.5515558 C43.7328383,16.7480171 42.3267955,18.1208054 42.3267955,18.1208054 L39.7959184,16.3361806 C39.7959184,16.3361806 42.4673998,13.8651617 40.4989398,12.0805369 Z" id="Shape" fill="#A29F9F"></path>
                <path d="M109.886658,2.01342282 C109.886658,2.01342282 113.401786,2.28798001 113.261199,4.48443239 C113.120612,6.68088476 111.714541,8.05369128 111.714541,8.05369128 L109.183673,6.26906183 C109.183673,6.26906183 111.855178,3.79805226 109.886709,2.01342282 L109.886658,2.01342282 Z" id="Shape" fill="#A29F9F"></path>
                <path d="M39.7959184,19.1275168 C40.1224518,19.1275168 41.8367347,18.1208054 41.8367347,18.1208054 L40.9387921,20.1342282 L39.7959184,19.1275168 Z" id="Shape" fill="#A29F9F"></path>
                <path d="M104.081633,10.2120539 C104.081633,10.2120539 101.360544,8.63297356 101.30139,8.10661344 C101.242236,7.58025333 102.011239,11.1331841 101.183082,11.9885193 C100.354925,12.8438545 100,14.0939597 100,14.0939597 L104.081633,10.2120539 Z" id="Shape" fill="#A29F9F"></path>
                <path d="M78.1522512,34.2281879 L78.0103948,34.3733867 C77.9927478,34.3705472 77.9748172,34.3600155 77.957227,34.3572535 L77.9926911,34.3895199 L75.5102041,36.874032 L81.6454934,39.0036138 C81.6454934,39.0036138 85.759329,39.0036138 87.7453186,39.261745 C88.0215697,37.502349 82.3887812,35.1248993 78.2941359,34.4056531 L78.1522795,34.2281879 L78.1522512,34.2281879 Z" id="Shape" fill="#A29F9F"></path>
                <path d="M54.0816327,35.2348993 C54.0816327,35.2348993 44.3148688,37.1755478 41.8367347,45.3020134 C43.877551,45.0594324 45.8665889,44.4408021 45.8665889,44.4408021" id="Shape" fill="#FFFFFF"></path>
                <path d="M66.7508417,125.836858 C57.4147381,125.779729 47.278143,124.081251 38.8272333,121.908327 C30.3763237,119.735403 23.2790863,116.82751 21.3115819,115.607089 C21.9349823,115.993908 20.945144,115.243909 20.1024791,113.752822 C19.2598142,112.261735 18.2883805,110.082606 17.4065328,107.467172 C16.0188226,103.35163 14.855888,98.1528444 14.2857143,92.6174497 C15.054573,92.6300712 15.847483,92.6525487 16.9653475,92.8060192 C22.7444668,93.5994693 33.4091456,96.8479435 50.6079468,107.184569 C68.9721923,118.221668 85.3861877,114.334622 95.5572912,107.357425 C96.4103295,106.772256 97.1767308,106.149876 97.9591837,105.534586 C97.4027088,107.808282 96.7409309,110.173999 95.9494326,112.66905 C94.1179229,117.728244 90.8455809,120.554272 85.8029033,122.72609 C80.7602257,124.897908 74.0130399,125.881939 66.7511031,125.837487 L66.7508417,125.836858 Z" id="Shape" fill="url(#linearGradient-1)"></path>
                <path d="M120.408163,70.9731544 C120.408163,75.1430208 117.438693,78.5234899 113.77551,78.5234899 C110.112327,78.5234899 107.142857,75.1430208 107.142857,70.9731544 C107.142857,66.8032879 110.112327,63.4228188 113.77551,63.4228188 C117.438693,63.4228188 120.408163,66.8032879 120.408163,70.9731544 Z" id="Shape" fill="#007880"></path>
                <path d="M116.249605,49.6409152 C134.297002,94.6612102 117.403894,121.475285 112.244898,126.986427 C112.244898,126.986427 122.567436,131.210207 132.87359,126.970866 C138.032639,121.462218 159.220876,97.4835134 136.952448,51.5355511 C136.952448,51.5355511 123.648525,41.1631329 116.249235,49.6417132 L116.249235,49.6416883 L116.249605,49.6409152 Z" id="Shape" fill="#00A7B3"></path>
                <g id="Group" transform="translate(105.102041, 61.409396)">
                    <path d="M13.2162338,7.62492291 C13.2162338,11.7089026 10.3289251,15.0197441 6.76709737,15.0197441 C3.20526959,15.0197441 0.317960964,11.7089026 0.317960964,7.62492291 C0.317960964,3.54094324 3.20526959,0.230101735 6.76709737,0.230101735 C10.3289251,0.230101735 13.2162338,3.54094324 13.2162338,7.62492291 Z" id="Shape" fill="#545454"></path>
                    <path d="M9.46147959,7.61845038 C9.46147959,10.5142737 7.41417857,12.8618888 4.88859694,12.8618888 C2.36301531,12.8618888 0.315714286,10.5142737 0.315714286,7.61845038 C0.315714286,4.72262704 2.36301531,2.37501198 4.88859694,2.37501198 C7.41417857,2.37501198 9.46147959,4.72262704 9.46147959,7.61845038 Z" id="Shape" fill="#CACACA"></path>
                    <path d="M9.36530612,6.57418504 C9.36530612,6.57418504 6.29770408,5.51061242 0.904362245,9.13342522 C0.943770153,11.9904183 2.38762245,12.8605944 4.88826531,12.8605944 C7.41371429,12.8605944 9.4584949,10.5151097 9.4584949,7.61904362 C9.4584949,7.26282958 9.42425714,6.91041767 9.36522321,6.57413111 L9.36530612,6.57418504 Z" id="Shape" fill="#A0A1A1"></path>
                    <path d="M9.33877551,1.01390221 C8.71696429,1.26670362 6.35245663,2.31342282 6.35245663,2.31342282 C7.67898724,2.51566395 8.13133418,3.5643786 8.13133418,3.5643786 C8.62878316,3.15989633 9.94921173,2.19644655 10.9026556,2.31442054" id="Shape" fill="#CACACA"></path>
                    <path d="M8.4002551,14.5020374 C7.77844388,14.7548388 6.29332653,12.798439 6.29332653,12.798439 C6.56460867,13.1436781 4.43744388,13.0960301 4.43744388,13.0960301 C4.93489286,12.6915478 4.90693622,14.6835421 5.8603801,14.801543" id="Shape" fill="#2E3436"></path>
                    <path d="M7.87627551,12.0967162 C7.87627551,12.0967162 9.07844388,11.3214585 8.99553571,10.9169763 C8.91262755,10.512494 11.5656888,11.9618888 11.5656888,11.9618888 C11.5656888,11.9618888 10.8195153,13.4786973 9.94897959,13.4449904 C9.22582143,13.4169895 8.04209184,12.1304231 7.87627551,12.0967162 Z" id="Shape" fill="#A0A1A1"></path>
                </g>
                <path d="M123.469388,94.1275168 C123.469388,98.2973833 120.499918,101.677852 116.836735,101.677852 C113.173552,101.677852 110.204082,98.2973833 110.204082,94.1275168 C110.204082,89.9576503 113.173552,86.5771812 116.836735,86.5771812 C120.499918,86.5771812 123.469388,89.9576503 123.469388,94.1275168 Z" id="Shape" fill="#007880"></path>
                <g id="Group" transform="translate(108.163265, 86.577181)">
                    <path d="M13.2162338,7.62492291 C13.2162338,11.7089026 10.3289251,15.0197441 6.76709737,15.0197441 C3.20526959,15.0197441 0.317960964,11.7089026 0.317960964,7.62492291 C0.317960964,3.54094324 3.20526959,0.230101735 6.76709737,0.230101735 C10.3289251,0.230101735 13.2162338,3.54094324 13.2162338,7.62492291 Z" id="Shape" fill="#545454"></path>
                    <path d="M9.46147959,7.61845038 C9.46147959,10.5142737 7.41417857,12.8618888 4.88859694,12.8618888 C2.36301531,12.8618888 0.315714286,10.5142737 0.315714286,7.61845038 C0.315714286,4.72262704 2.36301531,2.37501198 4.88859694,2.37501198 C7.41417857,2.37501198 9.46147959,4.72262704 9.46147959,7.61845038 Z" id="Shape" fill="#CACACA"></path>
                    <path d="M9.36530612,6.57418504 C9.36530612,6.57418504 6.29770408,5.51061242 0.904362245,9.13342522 C0.943770153,11.9904183 2.38762245,12.8605944 4.88826531,12.8605944 C7.41371429,12.8605944 9.4584949,10.5151097 9.4584949,7.61904362 C9.4584949,7.26282958 9.42425714,6.91041767 9.36522321,6.57413111 L9.36530612,6.57418504 Z" id="Shape" fill="#A0A1A1"></path>
                    <path d="M9.33877551,1.01390221 C8.71696429,1.26670362 6.35245663,2.31342282 6.35245663,2.31342282 C7.67898724,2.51566395 8.13133418,3.5643786 8.13133418,3.5643786 C8.62878316,3.15989633 9.94921173,2.19644655 10.9026556,2.31442054" id="Shape" fill="#CACACA"></path>
                    <path d="M8.4002551,14.5020374 C7.77844388,14.7548388 6.29332653,12.798439 6.29332653,12.798439 C6.56460867,13.1436781 4.43744388,13.0960301 4.43744388,13.0960301 C4.93489286,12.6915478 4.90693622,14.6835421 5.8603801,14.801543" id="Shape" fill="#2E3436"></path>
                    <path d="M7.87627551,12.0967162 C7.87627551,12.0967162 9.07844388,11.3214585 8.99553571,10.9169763 C8.91262755,10.512494 11.5656888,11.9618888 11.5656888,11.9618888 C11.5656888,11.9618888 10.8195153,13.4786973 9.94897959,13.4449904 C9.22582143,13.4169895 8.04209184,12.1304231 7.87627551,12.0967162 Z" id="Shape" fill="#A0A1A1"></path>
                </g>
                <path d="M126.530612,46.9712961 C126.530612,46.9712961 117.323239,43.6525453 117.346985,51.870146 C117.37073,60.0877467 117.555521,45.2009633 126.530612,46.9712961 Z" id="Shape" fill="#A8DDE0"></path>
                <path d="M32.8292442,14.9302442 C32.0714676,13.1190146 34.0034232,12.0805369 34.0034232,12.0805369 C34.9976638,12.1110863 36.7346939,13.3778184 36.7346939,13.3778184 C36.7346939,13.3778184 35.1175611,13.9347976 35.3075835,16.1073826 C35.3075835,16.1073826 34.2062124,14.9532588 32.8291979,14.9302001 L32.8292442,14.9302442 Z" id="Shape" fill="#FFFFFF"></path>
                <path d="M100.176183,4.86313013 C99.4184064,3.05190052 101.350362,2.01342282 101.350362,2.01342282 C102.344603,2.04397225 104.081633,3.31070429 104.081633,3.31070429 C104.081633,3.31070429 102.4645,3.86768352 102.654522,6.04026846 C102.654522,6.04026846 101.553151,4.88614471 100.176137,4.86308604 L100.176183,4.86313013 Z" id="Shape" fill="#FFFFFF"></path>
            </g>
        </g>
    </g>
</svg>
